<svg width="100" height="100" viewBox="0 0 100 100" fill="none" xmlns="http://www.w3.org/2000/svg">
<path d="M21.9177 43.5872H9.62085C9.24116 43.5872 8.93335 43.895 8.93335 44.2747V47.5868C8.93335 47.9665 9.24116 48.2743 9.62085 48.2743H21.9177C22.2974 48.2743 22.6052 47.9665 22.6052 47.5868V44.2747C22.6052 43.895 22.2974 43.5872 21.9177 43.5872Z" fill="#EDF4FC"/>
<path d="M90.3248 68.6446C90.1806 66.0543 88.3689 63.859 85.8529 63.2258L74.1869 60.2895L70.0638 58.2567C68.2916 57.3828 67.1693 55.5781 67.1693 53.6024V51.0453C65.0427 52.2031 62.6099 52.8621 60.0306 52.8621C57.6255 52.8621 55.3494 52.286 53.3287 51.2699V53.6024C53.3287 55.5785 52.2064 57.3828 50.4341 58.2567L46.3111 60.2895L43.0755 61.1039C40.8525 61.6633 38.5689 61.9465 36.2763 61.9465H22.2146V48.2047C22.1244 48.2481 22.0244 48.2746 21.9177 48.2746H9.62085C9.51382 48.2746 9.41421 48.2481 9.32397 48.2047V64.2703C9.32397 70.7535 14.5798 76.009 21.0626 76.009H36.9697C38.3357 76.009 39.4427 77.1164 39.4427 78.4821V97.7203C39.4427 98.4399 40.0259 99.0235 40.7458 99.0235H90.34C91.2861 99.0235 92.038 98.2285 91.9853 97.284L90.3248 68.6446Z" fill="#70D6F9"/>
<path d="M24.8983 33.3304L24.8444 30.4922C24.8264 29.5406 24.119 28.6996 23.1701 28.6219C22.0811 28.5328 21.1721 29.4101 21.1924 30.4758C21.1924 30.4758 21.0635 24.1761 21.0631 24.1605C21.0451 23.2058 20.2112 22.4527 19.2393 22.564C18.3905 22.6613 17.7807 23.4371 17.7971 24.2914L17.8041 24.6547C17.7858 23.6969 16.9494 22.9465 15.9741 23.0582C15.1237 23.1554 14.5127 23.9316 14.5291 24.7875L14.5444 25.5812C14.526 24.6234 13.6893 23.873 12.7143 23.9847C11.8639 24.0824 11.253 24.8582 11.2694 25.714L11.2885 26.7238C11.2701 25.766 10.4338 25.0156 9.45843 25.1273C8.60804 25.225 7.9971 26.0008 8.01351 26.8566L8.18343 35.8023C8.19749 36.5351 8.32601 37.2609 8.56468 37.9535C8.83187 38.8527 10.4795 40.9203 10.5119 42.6164L10.4877 43.5871H20.9877L20.9768 43.2992C21.0444 40.3929 22.81 39.3765 23.494 38.1375C24.4405 36.7156 24.9307 35.0386 24.8983 33.3304Z" fill="#F9D0B4"/>
<path d="M75.0497 24.2243C75.0411 23.7981 74.7 23.4469 74.2743 23.4348C68.0336 23.252 64.7458 20.7786 63.4825 19.5399C63.1375 19.2016 62.5809 19.2375 62.2801 19.6157C56.7934 26.5153 48.6997 25.5418 45.9786 24.9723C45.484 24.8688 45.0094 25.2415 45.009 25.7469V37.8407C45.009 46.1024 51.7688 52.8622 60.0305 52.8622C68.2922 52.8622 75.052 46.1024 75.052 37.8407V24.459C75.052 24.3805 75.0512 24.3024 75.0497 24.2243Z" fill="#F9D0B4"/>
<path d="M71.7854 8.29026C70.1846 8.29026 68.6881 8.7426 67.4021 9.5137C65.8998 7.00666 63.1631 5.31409 60.0436 5.31409H55.6373C47.1092 5.31409 40.1318 12.2914 40.1318 20.8196V27.7672C41.2049 26.9086 42.5639 26.3922 44.0447 26.3922C44.3729 26.3922 44.6943 26.4199 45.0088 26.4688V25.7469C45.0092 25.2418 45.4838 24.8688 45.9783 24.9723C48.6998 25.5418 56.7936 26.5156 62.2799 19.6156C62.5807 19.2375 63.1373 19.202 63.4822 19.5403C64.7455 20.7789 68.0338 23.252 74.274 23.4348C74.6998 23.4473 75.0412 23.7985 75.0494 24.2242C75.051 24.3024 75.0518 24.3805 75.0518 24.459V26.4684C75.3662 26.4196 75.6877 26.3918 76.0158 26.3918C77.7064 26.3918 79.2377 27.0641 80.3658 28.1516V16.8711C80.3662 12.1516 76.5049 8.29026 71.7854 8.29026Z" fill="#5B5D60"/>
<path d="M76.0161 26.3918C75.688 26.3918 75.3665 26.4196 75.0521 26.4684V37.8403C75.0521 38.179 75.0364 38.5145 75.0142 38.8477C75.3411 38.9004 75.6743 38.9352 76.0161 38.9352C79.4798 38.9352 82.2876 36.1274 82.2876 32.6637C82.2876 29.2 79.4798 26.3918 76.0161 26.3918Z" fill="#F9D0B4"/>
<path d="M45.009 37.8403V26.4684C44.6945 26.4196 44.373 26.3918 44.0449 26.3918C40.5813 26.3918 37.7734 29.1997 37.7734 32.6633C37.7734 36.127 40.5813 38.9348 44.0449 38.9348C44.3867 38.9348 44.7195 38.9 45.0469 38.8473C45.0242 38.5145 45.009 38.179 45.009 37.8403Z" fill="#F9D0B4"/>
<path d="M62.3787 69.5007H58.1193L54.833 99.0234H65.665L62.3787 69.5007Z" fill="#29589F"/>
<path d="M55.3896 94.0231L54.833 99.0235H65.0568L55.3896 94.0231Z" fill="#5290DB"/>
<path d="M64.4357 87.9801L56.5181 83.8848L55.9236 89.2281L65.1033 93.9762L64.4357 87.9801Z" fill="#5290DB"/>
<path d="M63.172 76.6297L57.6442 73.7708L57.0493 79.1141L63.8395 82.6262L63.172 76.6297Z" fill="#5290DB"/>
<path d="M73.1529 83.4395C75.2433 83.1007 76.6631 81.1314 76.3243 79.0411C75.9854 76.9507 74.0161 75.5309 71.9258 75.8697C69.8354 76.2086 68.4156 78.1778 68.7544 80.2682C69.0933 82.3585 71.0626 83.7784 73.1529 83.4395Z" fill="#9BE5F9"/>
<path d="M62.3732 64.4574C62.2521 64.3238 62.1904 64.1574 62.1845 63.989H58.3134C58.3072 64.1574 58.2458 64.3242 58.1248 64.4574L56.7166 66.0066L58.1197 69.5007H62.3787L63.7818 66.0066L62.3732 64.4574Z" fill="#3A70BF"/>
<path d="M58.1188 63.4605L52.0805 56.975C51.6317 57.5 51.0762 57.9398 50.4344 58.2566L46.8157 60.0406L53.9215 67.8816C54.2133 68.2035 54.7192 68.2039 55.0114 67.8824L58.1251 64.4574C58.3821 64.1742 58.3797 63.741 58.1188 63.4605Z" fill="#EDF4FC"/>
<path d="M70.0638 58.2566C69.4216 57.9398 68.8666 57.5 68.4177 56.975L62.3795 63.4605C62.1185 63.7406 62.1162 64.1738 62.3736 64.4574L65.4873 67.8824C65.7795 68.2039 66.2853 68.2035 66.5771 67.8816L73.683 60.0406L70.0638 58.2566Z" fill="#EDF4FC"/>
<path d="M67.1692 53.6023V51.0453C65.0427 52.2031 62.6099 52.8621 60.0306 52.8621C57.6255 52.8621 55.3493 52.2859 53.3286 51.2699V53.6023C53.3286 54.8625 52.8708 56.0515 52.0806 56.975L58.1188 63.4605C58.2567 63.6086 58.3204 63.7996 58.3134 63.9887H62.1845C62.1774 63.7996 62.2411 63.6086 62.379 63.4605L68.4173 56.975C67.6274 56.0512 67.1692 54.8621 67.1692 53.6023Z" fill="#F9D0B4"/>
<path d="M76.0262 24.2043C76.0071 23.2531 75.25 22.4863 74.3028 22.4582C68.3036 22.2824 65.2153 19.8711 64.1657 18.8422C63.8043 18.4883 63.309 18.302 62.8055 18.334C62.3012 18.3652 61.8313 18.6106 61.5157 19.0074C56.459 25.3664 49.1055 24.6281 46.1786 24.016C45.6501 23.9047 45.1063 24.0371 44.6864 24.3777C44.2711 24.7148 44.0329 25.2133 44.0325 25.7566V37.8402C44.0325 46.6617 51.2094 53.8387 60.0305 53.8387C68.852 53.8387 76.029 46.6617 76.029 37.8402V24.459C76.0286 24.3742 76.0278 24.2895 76.0262 24.2043ZM63.0442 20.2231L63.0438 20.2238C63.0442 20.2234 63.0442 20.2234 63.0442 20.2231ZM74.0754 37.8402C74.0754 45.5848 67.775 51.8856 60.0301 51.8856C52.2856 51.8856 45.9852 45.5852 45.9852 37.8402V25.9695C48.7661 26.5145 57.1879 27.4344 62.9305 20.3641C64.4903 21.8402 67.9161 24.1836 74.0751 24.4047V24.4586L74.0754 37.8402Z" fill="black"/>
<path d="M71.7856 7.3137C70.3836 7.3137 68.9954 7.63049 67.7219 8.23596C65.9262 5.81096 63.0622 4.33752 60.0438 4.33752H55.6376C46.5493 4.33752 39.1555 11.7313 39.1555 20.8196V27.5024C39.1555 28.0418 39.5926 28.4789 40.1321 28.4789C40.6715 28.4789 41.1086 28.0418 41.1086 27.5024V20.8196C41.1086 12.8082 47.6262 6.29065 55.6376 6.29065H60.0438C62.6891 6.29065 65.1879 7.71799 66.5645 10.016C66.6977 10.2383 66.9137 10.3985 67.1649 10.4614C67.4157 10.5235 67.6825 10.4848 67.9043 10.3516C69.0876 9.64221 70.4293 9.26721 71.7856 9.26721C75.9786 9.26721 79.3895 12.6781 79.3895 16.8711V27.9133C79.3895 28.4528 79.8266 28.8899 80.3661 28.8899C80.9055 28.8899 81.3426 28.4528 81.3426 27.9133V16.8707C81.3426 11.6012 77.0551 7.3137 71.7856 7.3137Z" fill="black"/>
<path d="M81.0548 74.7953C80.5154 74.7953 80.0782 75.2324 80.0782 75.7719V98.6359C80.0782 99.1754 80.5154 99.6125 81.0548 99.6125C81.5943 99.6125 82.0314 99.1754 82.0314 98.6359V75.7719C82.0314 75.2324 81.5943 74.7953 81.0548 74.7953Z" fill="black"/>
<path d="M76.0162 25.4153C75.7494 25.4153 75.4759 25.4313 75.2025 25.4629C74.6666 25.5247 74.2822 26.0086 74.3439 26.5446C74.4052 27.0805 74.8904 27.4637 75.4255 27.4032C75.6252 27.3801 75.824 27.3688 76.0162 27.3688C78.9357 27.3688 81.3111 29.7442 81.3111 32.6641C81.3111 35.5836 78.9357 37.959 76.0162 37.959C75.8435 37.959 75.6662 37.9485 75.474 37.9262C74.9384 37.8668 74.4541 38.2497 74.3923 38.7852C74.331 39.3211 74.7158 39.8051 75.2513 39.8668C75.5185 39.8973 75.7685 39.9122 76.0162 39.9122C80.0127 39.9122 83.2642 36.6606 83.2642 32.6641C83.2642 28.6676 80.013 25.4153 76.0162 25.4153Z" fill="black"/>
<path d="M45.7083 38.7742C45.6438 38.239 45.1606 37.8582 44.622 37.9214C44.4165 37.946 44.2278 37.9582 44.045 37.9582C41.1255 37.9582 38.7501 35.5828 38.7501 32.6632C38.7501 29.7433 41.1255 27.3679 44.045 27.3679C44.2302 27.3679 44.4216 27.3789 44.6146 27.4003C45.1521 27.4597 45.6337 27.0738 45.6935 26.5378C45.7532 26.0019 45.3669 25.5191 44.831 25.4589C44.5669 25.4296 44.3024 25.4148 44.0454 25.4148C40.0489 25.4148 36.7974 28.6664 36.7974 32.6632C36.7974 36.6601 40.0489 39.9113 44.0454 39.9113C44.3071 39.9113 44.5724 39.8949 44.8563 39.8605C45.3911 39.796 45.7731 39.3097 45.7083 38.7742Z" fill="black"/>
<path d="M64.9462 41.5371C64.5329 41.1906 63.9169 41.2449 63.5704 41.6582C62.838 42.5316 61.5966 43.0531 60.2489 43.0531C58.9012 43.0531 57.6595 42.5316 56.9274 41.6582C56.5813 41.2453 55.9657 41.1906 55.5516 41.5371C55.1384 41.8836 55.0841 42.4996 55.4305 42.9129C56.5294 44.2234 58.3305 45.0063 60.2489 45.0063C62.1673 45.0063 63.9684 44.2238 65.0673 42.9129C65.4138 42.4996 65.3595 41.884 64.9462 41.5371Z" fill="black"/>
<path d="M67.0259 35.8531C68.1406 35.8531 69.0443 34.9495 69.0443 33.8348C69.0443 32.7201 68.1406 31.8164 67.0259 31.8164C65.9112 31.8164 65.0076 32.7201 65.0076 33.8348C65.0076 34.9495 65.9112 35.8531 67.0259 35.8531Z" fill="black"/>
<path d="M54.8896 35.2639C55.6777 34.4758 55.6777 33.198 54.8896 32.4099C54.1015 31.6218 52.8237 31.6218 52.0356 32.4099C51.2475 33.198 51.2475 34.4758 52.0356 35.2639C52.8237 36.052 54.1015 36.052 54.8896 35.2639Z" fill="black"/>
<path d="M66.6357 98.9156L63.3494 69.3926C63.2943 68.898 62.8763 68.5238 62.3787 68.5238H58.1193C57.6216 68.5238 57.2037 68.898 57.1486 69.3926L53.8622 98.9156C53.8314 99.1918 53.9197 99.4679 54.1052 99.6746C54.2904 99.8816 54.5548 100 54.8329 100H65.665C65.9427 100 66.2076 99.8816 66.3927 99.6746C66.5779 99.4676 66.6665 99.1914 66.6357 98.9156ZM55.9244 98.0468L58.9931 70.4769H61.5044L64.5736 98.0468H55.9244Z" fill="black"/>
<path d="M65.2512 92.9536L56.6328 88.4958C56.1531 88.2477 55.5645 88.4352 55.3168 88.9145C55.0691 89.3934 55.2566 89.9829 55.7356 90.2305L64.3539 94.6883C64.4973 94.7626 64.6508 94.7977 64.8016 94.7977C65.1551 94.7977 65.4961 94.6051 65.6699 94.2696C65.918 93.7907 65.7305 93.2012 65.2512 92.9536Z" fill="black"/>
<path d="M64.7002 87.0172L57.2354 83.1562C56.7561 82.9086 56.167 83.0957 55.9193 83.575C55.6717 84.0539 55.8592 84.6433 56.3381 84.891L63.8029 88.7519C63.9463 88.8261 64.0998 88.8613 64.2506 88.8613C64.6041 88.8613 64.9451 88.6687 65.1189 88.3332C65.367 87.8543 65.1795 87.2648 64.7002 87.0172Z" fill="black"/>
<path d="M63.9833 81.6008L57.7029 78.3523C57.2236 78.1043 56.6345 78.2918 56.3869 78.7711C56.1392 79.25 56.3267 79.8394 56.8056 80.0871L63.0861 83.3355C63.2294 83.4097 63.383 83.4449 63.5337 83.4449C63.8873 83.4449 64.2283 83.2523 64.4021 82.9168C64.6498 82.4383 64.4623 81.8488 63.9833 81.6008Z" fill="black"/>
<path d="M63.3427 75.6184L58.3181 73.0196C57.8388 72.7719 57.2498 72.9594 57.0021 73.4383C56.7544 73.9172 56.9419 74.5067 57.4208 74.7543L62.4455 77.3532C62.5888 77.4274 62.7423 77.4625 62.8931 77.4625C63.2466 77.4625 63.5877 77.2699 63.7615 76.9344C64.0095 76.4559 63.822 75.8664 63.3427 75.6184Z" fill="black"/>
<path d="M72.5604 74.8372C69.9072 74.8372 67.749 76.9954 67.749 79.6481C67.749 82.3008 69.9072 84.4594 72.5604 84.4594C75.2135 84.4594 77.3713 82.3012 77.3713 79.6481C77.3713 76.995 75.2131 74.8372 72.5604 74.8372ZM72.5604 82.5067C70.9842 82.5067 69.7021 81.2247 69.7021 79.6485C69.7021 78.0727 70.9842 76.7907 72.5604 76.7907C74.1361 76.7907 75.4182 78.0727 75.4182 79.6485C75.4182 81.2247 74.1361 82.5067 72.5604 82.5067Z" fill="black"/>
<path d="M61.9875 63.0125H58.5208C57.9813 63.0125 57.5442 63.4496 57.5442 63.989C57.5442 64.5285 57.9813 64.9656 58.5208 64.9656H61.9875C62.527 64.9656 62.9641 64.5285 62.9641 63.989C62.9641 63.4496 62.527 63.0125 61.9875 63.0125Z" fill="black"/>
<path d="M64.0544 65.3266C63.5536 65.1258 62.9853 65.3684 62.7845 65.8688L61.506 69.0528C61.3048 69.5532 61.5478 70.1219 62.0482 70.3227C62.1677 70.3708 62.2907 70.3934 62.4118 70.3934C62.799 70.3934 63.1654 70.1618 63.3185 69.7805L64.597 66.5965C64.7978 66.0965 64.5552 65.5274 64.0544 65.3266Z" fill="black"/>
<path d="M58.9848 69.0356L57.7278 65.9043C57.527 65.4039 56.9586 65.1614 56.4578 65.3621C55.9574 65.5629 55.7145 66.1317 55.9157 66.6321L57.1727 69.7633C57.3258 70.1446 57.6922 70.3762 58.0793 70.3762C58.2004 70.3762 58.3235 70.3536 58.443 70.3055C58.943 70.1047 59.186 69.5364 58.9848 69.0356Z" fill="black"/>
<path d="M58.8336 62.7953L52.9906 56.5199C52.6235 56.1254 52.0051 56.1027 51.6106 56.4707C51.216 56.8383 51.1938 57.4559 51.5613 57.8508L57.2531 63.9641L54.4664 67.0293L47.7856 59.657C47.4235 59.2578 46.8059 59.227 46.4063 59.5891C46.0067 59.9512 45.9762 60.5687 46.3383 60.9684L53.1973 68.5371C53.5211 68.8941 53.9828 69.0992 54.4649 69.0996H54.466C54.9473 69.0996 55.4094 68.8953 55.7332 68.5391L58.8473 65.1141C59.4414 64.4605 59.4356 63.4422 58.8336 62.7953Z" fill="black"/>
<path d="M74.1357 59.5406C73.7361 59.1785 73.1185 59.2089 72.7564 59.6085L66.0314 67.0296L63.2451 63.9644L68.9271 57.8609C69.2947 57.466 69.2724 56.848 68.8779 56.4808C68.483 56.1132 67.865 56.1355 67.4978 56.53L61.6646 62.7956C61.0627 63.4425 61.0568 64.4613 61.651 65.1144L64.765 68.5398C65.0892 68.896 65.5506 69.0999 66.0322 69.0999H66.0338C66.5154 69.0996 66.9775 68.8945 67.301 68.5374L74.2041 60.9203C74.5658 60.5203 74.5353 59.9027 74.1357 59.5406Z" fill="black"/>
<path d="M22.1678 30.4129C22.1576 29.8739 21.7045 29.4333 21.1728 29.4551C20.6334 29.4653 20.2045 29.911 20.215 30.4501L20.2611 32.8766C20.2713 33.4094 20.7064 33.8348 21.2373 33.8348H21.2561C21.7955 33.8247 22.2244 33.379 22.2139 32.8399L22.1678 30.4129Z" fill="black"/>
<path d="M18.7801 24.6363C18.7699 24.0972 18.3203 23.657 17.7852 23.6785C17.2457 23.6886 16.8168 24.1343 16.8273 24.6734L16.918 29.4484C16.9281 29.9812 17.3633 30.4066 17.8941 30.4066H17.9129C18.4523 30.3965 18.8812 29.9508 18.8707 29.4117L18.7801 24.6363Z" fill="black"/>
<path d="M15.5196 25.5629C15.5094 25.0238 15.0657 24.5847 14.5247 24.605C13.9852 24.6152 13.5563 25.0609 13.5668 25.6L13.6411 29.5105C13.6516 30.0433 14.0868 30.4687 14.6172 30.4687H14.636C15.1754 30.4586 15.6043 30.0129 15.5938 29.4738L15.5196 25.5629Z" fill="black"/>
<path d="M12.2637 26.7055C12.2536 26.1664 11.8122 25.7399 11.2688 25.7477C10.7297 25.7578 10.3004 26.2035 10.311 26.7426L10.3649 29.5731C10.375 30.1059 10.8102 30.5313 11.3411 30.5313H11.3598C11.8989 30.5211 12.3282 30.0754 12.3176 29.5363L12.2637 26.7055Z" fill="black"/>
<path d="M25.8204 30.4738C25.7927 29.0054 24.6634 27.7644 23.2493 27.6484C22.8607 27.616 22.4747 27.6668 22.1138 27.7902C22.079 26.0863 22.0399 24.1863 22.0392 24.1418C22.0251 23.4066 21.6997 22.707 21.1458 22.2222C20.5939 21.739 19.8599 21.5109 19.1278 21.5933C18.4903 21.6664 17.9243 21.9828 17.5122 22.4445C17.0212 22.1504 16.4403 22.0214 15.8622 22.0879C15.0927 22.1761 14.4271 22.6179 14.0103 23.2425C13.5755 23.0406 13.0888 22.9593 12.6017 23.0144C11.7642 23.1109 11.0501 23.625 10.6462 24.3382C10.2396 24.1711 9.7919 24.1058 9.34581 24.1574C8.02393 24.3089 7.00948 25.5027 7.03565 26.8754L7.20596 35.8211C7.22198 36.6511 7.36573 37.4695 7.63409 38.2543C7.75909 38.6597 8.01729 39.1156 8.34307 39.6894C8.83526 40.557 9.50792 41.7429 9.5337 42.616L9.52003 43.1718C9.50635 43.7109 9.93253 44.1589 10.472 44.1726C11.0208 44.1875 11.4595 43.7601 11.4728 43.2207L11.4872 42.641C11.4876 42.6265 11.4876 42.6125 11.4872 42.598C11.4614 41.2281 10.6743 39.8406 10.0419 38.7257C9.81534 38.3261 9.55831 37.873 9.49971 37.6757C9.49581 37.6625 9.49151 37.6488 9.48682 37.6355C9.28135 37.0386 9.17081 36.4156 9.1587 35.7839L8.98839 26.8382C8.98135 26.4675 9.24151 26.1355 9.56807 26.098C9.8255 26.0679 10.0021 26.1847 10.0845 26.2566C10.2267 26.3812 10.3071 26.5535 10.3107 26.7425C10.3208 27.2816 10.7747 27.7183 11.3056 27.7004C11.8446 27.6902 12.2735 27.2445 12.2634 26.7054V26.7043L12.2442 25.6957C12.2372 25.325 12.4974 24.9929 12.8239 24.9554C13.0806 24.9254 13.2579 25.0421 13.3403 25.114C13.4821 25.2382 13.5626 25.4105 13.5665 25.5988V25.6C13.5767 26.1394 14.0243 26.5695 14.5614 26.5578C15.1005 26.5476 15.5298 26.1019 15.5192 25.5629L15.504 24.7691C15.497 24.3984 15.7571 24.0664 16.0841 24.0289C16.3407 23.9996 16.5181 24.1156 16.6005 24.1875C16.7427 24.3121 16.8232 24.4847 16.8267 24.6734C16.8368 25.2125 17.2845 25.6507 17.8216 25.6312C18.3607 25.6211 18.7896 25.1754 18.7794 24.6363L18.7724 24.2726C18.7653 23.9027 19.0243 23.5711 19.3493 23.5339C19.6024 23.505 19.7771 23.6203 19.8587 23.6918C20.0017 23.8168 20.0821 23.9898 20.0857 24.1718C20.0857 24.1773 20.086 24.1914 20.2153 30.4929V30.4937V30.4949C20.2263 31.0339 20.6692 31.4671 21.211 31.4511C21.7501 31.4406 22.1786 30.9953 22.1681 30.4562C22.1634 30.2187 22.2618 29.9875 22.438 29.8222C22.6157 29.6554 22.8482 29.5761 23.0896 29.5945C23.5165 29.6293 23.8579 30.032 23.8673 30.5101L23.9212 33.3484C23.9501 34.8648 23.5208 36.3332 22.6798 37.5953C22.6646 37.6179 22.6505 37.641 22.6376 37.6648C22.4923 37.9273 22.2548 38.2113 21.9798 38.5398C21.1677 39.5093 20.0556 40.8375 19.9989 43.2757C19.9864 43.8148 20.4134 44.2621 20.9524 44.275H20.9755C21.5044 44.275 21.9392 43.8523 21.9517 43.3211C21.9923 41.5668 22.7474 40.6656 23.4771 39.7937C23.7939 39.4156 24.0935 39.0582 24.3267 38.6457C25.3751 37.0582 25.9099 35.2144 25.8735 33.3113L25.8204 30.4738Z" fill="black"/>
<path d="M21.9177 42.6106H9.62085C8.70327 42.6106 7.95679 43.3571 7.95679 44.2747V47.5868C7.95679 48.5043 8.70327 49.2508 9.62085 49.2508H21.9177C22.8353 49.2508 23.5818 48.5043 23.5818 47.5868V44.2747C23.5818 43.3571 22.8353 42.6106 21.9177 42.6106ZM21.6287 47.2981H9.90991V44.5637H21.6287V47.2981Z" fill="black"/>
<path d="M53.3287 50.586C52.7892 50.586 52.3521 51.0231 52.3521 51.5625V53.602C52.3521 55.218 51.4517 56.6661 50.0021 57.3805L45.972 59.3676L42.8373 60.1567C40.6939 60.6961 38.4865 60.97 36.2767 60.97H23.1912V48.4133C23.1912 47.8739 22.7541 47.4368 22.2146 47.4368C21.6751 47.4368 21.238 47.8739 21.238 48.4133V61.9465C21.238 62.486 21.6751 62.9231 22.2146 62.9231H36.2763C38.6466 62.9231 41.0146 62.6297 43.3138 62.0508L46.5494 61.2364C46.6162 61.2196 46.681 61.1957 46.7427 61.1653L50.8658 59.1325C52.9873 58.0864 54.3052 55.9672 54.3052 53.602V51.5625C54.3052 51.0231 53.8681 50.586 53.3287 50.586Z" fill="black"/>
<path d="M92.9607 97.2273L91.3001 68.5902C91.131 65.5566 89.038 63.0203 86.0919 62.2785L74.5267 59.3672L70.4962 57.3804C69.047 56.6656 68.1466 55.2179 68.1466 53.6019V51.3304C68.1466 50.791 67.7095 50.3539 67.1701 50.3539C66.6306 50.3539 66.1935 50.791 66.1935 51.3304V53.6019C66.1935 55.9672 67.5115 58.0863 69.6326 59.1324L73.756 61.1652C73.8177 61.1957 73.8826 61.2195 73.9494 61.2363L85.6154 64.1726C87.7283 64.7047 89.2291 66.5238 89.3509 68.7011L91.0115 97.3383C91.0216 97.5246 90.9568 97.7015 90.8291 97.8367C90.7009 97.9722 90.5279 98.0468 90.3412 98.0468H40.7462C40.5662 98.0468 40.4197 97.9004 40.4197 97.7207V78.4824C40.4197 76.5801 38.872 75.0328 36.9697 75.0328H21.0626C15.1283 75.0328 10.3005 70.2047 10.3005 64.2703V48.389C10.3005 47.8496 9.86343 47.4125 9.32397 47.4125C8.78452 47.4125 8.34741 47.8496 8.34741 48.389V64.2703C8.34741 71.2816 14.0517 76.9859 21.0626 76.9859H36.9697C37.7951 76.9859 38.4666 77.6574 38.4666 78.4824V97.7207C38.4666 98.9777 39.4892 100 40.7462 100H90.3404C91.0583 100 91.7537 99.7008 92.247 99.1789C92.7408 98.6574 93.0009 97.9468 92.9607 97.2273Z" fill="black"/>
<path d="M65.2516 98.0247L56.1406 93.3122C55.6613 93.0641 55.0723 93.2516 54.8246 93.7309C54.577 94.2098 54.7645 94.7993 55.2434 95.0469L64.3543 99.7594C64.4977 99.8336 64.6512 99.8688 64.802 99.8688C65.1555 99.8688 65.4965 99.6762 65.6703 99.3407C65.9184 98.8618 65.7309 98.2727 65.2516 98.0247Z" fill="black"/>
<path d="M37.7216 8.7231C35.9646 8.39575 34.5798 7.0395 34.2458 5.31841C34.2291 5.23208 34.1084 5.23208 34.0916 5.31841C33.7576 7.0395 32.3728 8.39614 30.6158 8.7231C30.5275 8.7395 30.5275 8.85786 30.6158 8.87427C32.3728 9.20161 33.7576 10.5579 34.0916 12.2793C34.1084 12.3657 34.2291 12.3657 34.2458 12.2793C34.5798 10.5583 35.9646 9.20161 37.7216 8.87427C37.8099 8.85747 37.8099 8.7395 37.7216 8.7231Z" fill="#FC657E"/>
<path d="M24.516 83.8242C23.3012 83.598 22.3434 82.6597 22.1125 81.4699C22.1008 81.4101 22.0176 81.4101 22.0059 81.4699C21.775 82.6601 20.8172 83.598 19.6023 83.8242C19.5414 83.8355 19.5414 83.9171 19.6023 83.9285C20.8172 84.1546 21.7746 85.0929 22.0059 86.2828C22.0176 86.3425 22.1008 86.3425 22.1125 86.2828C22.3434 85.0925 23.3012 84.1546 24.516 83.9285C24.577 83.9175 24.577 83.8355 24.516 83.8242Z" fill="#F5C84C"/>
<path d="M89.0489 40.918H88.1392V40.0079C88.1392 39.3266 87.5872 38.7747 86.906 38.7747C86.2247 38.7747 85.6728 39.3266 85.6728 40.0079V40.918H84.7626C84.0814 40.918 83.5294 41.47 83.5294 42.1512C83.5294 42.8325 84.0814 43.3844 84.7626 43.3844H85.6728V44.2946C85.6728 44.9758 86.2247 45.5278 86.906 45.5278C87.5872 45.5278 88.1392 44.9758 88.1392 44.2946V43.3844H89.0489C89.7302 43.3844 90.2821 42.8325 90.2821 42.1512C90.2821 41.47 89.7302 40.918 89.0489 40.918Z" fill="#B2E26D"/>
<path d="M42.3829 2.63828C43.1114 2.63828 43.702 2.04768 43.702 1.31914C43.702 0.590599 43.1114 0 42.3829 0C41.6543 0 41.0637 0.590599 41.0637 1.31914C41.0637 2.04768 41.6543 2.63828 42.3829 2.63828Z" fill="#F5C84C"/>
<path d="M80.6641 51.4664C81.3927 51.4664 81.9833 50.8758 81.9833 50.1473C81.9833 49.4187 81.3927 48.8281 80.6641 48.8281C79.9356 48.8281 79.345 49.4187 79.345 50.1473C79.345 50.8758 79.9356 51.4664 80.6641 51.4664Z" fill="#70D6F9"/>
</svg>
