<svg width="265" height="60" viewBox="0 0 265 60" fill="none" xmlns="http://www.w3.org/2000/svg">
<g clip-path="url(#clip0_926_1559)">
<path d="M13.6179 15.4995L13.6179 37.3702H21.5726V15.4995H13.6179Z" fill="#026937"/>
<path d="M114.313 37.3702H101.319C95.1625 37.3702 92.1911 36.5272 89.2803 34.0076C85.806 30.985 83.957 25.6617 83.957 18.7736C83.957 10.5441 86.8166 4.43841 91.7999 1.86292C94.0401 0.740511 97.7939 0 101.659 0H114.313V6.6646H102.61C98.9675 6.6646 96.5038 7.5588 94.7666 9.51952C93.4812 11.0331 92.7547 13.9998 92.7547 18.0331C92.7547 23.2958 93.8724 27.2173 95.9449 28.8985C97.4585 30.0722 99.7546 30.6916 102.889 30.6916H114.313V37.3702Z" fill="#2F348A"/>
<path d="M119.972 0.0139771H127.922V37.3702H119.972V0.0139771Z" fill="#2F348A"/>
<path d="M143.1 0.0139771V20.9718C143.324 27.1893 143.436 27.5805 144.963 29.0942C146.477 30.3796 148.265 30.7196 153.141 30.7196H160.756V37.3841H152.284C144.949 37.4959 142.504 36.8765 139.291 34.4128C135.988 31.4461 135.201 28.824 135.146 20.9718V0.0139771H143.1Z" fill="#2F348A"/>
<path d="M156.15 0.0139771H165.465L174.034 14.5727L183.106 0.0139771H192.514L177.955 21.2932V37.3702H169.982V21.0137L156.15 0.0139771Z" fill="#2F348A"/>
<path d="M194.456 6.67857V0.0139771H226.661V6.67857H214.338V37.3702H206.384V6.67857H194.456Z" fill="#2F348A"/>
<path d="M230.969 30.7056H247.997C250.851 30.7056 252.477 30.482 253.427 29.8626C254.044 29.5233 254.554 29.019 254.9 28.4062C255.246 27.7934 255.415 27.0962 255.388 26.3929C255.412 25.5896 255.209 24.7958 254.803 24.1023C254.397 23.4088 253.804 22.8436 253.092 22.4715C252.253 21.9685 250.796 21.7449 248.947 21.7449H242.059C237.746 21.7449 234.835 21.0137 232.93 19.4489C231.732 18.4094 230.775 17.1205 230.126 15.6725C229.478 14.2244 229.154 12.6522 229.176 11.0657C229.176 6.40842 231.64 2.32863 235.338 0.926786C237.131 0.256135 239.092 0.0325928 243.684 0.0325928H262.164V6.69719H245.477C242.003 6.69719 240.717 6.80895 239.818 7.25606C238.645 7.92671 237.955 9.1609 237.955 10.8422C237.932 11.5057 238.074 12.1647 238.367 12.7604C238.66 13.356 239.097 13.8698 239.637 14.256C240.647 14.8707 241.877 15.0989 244.788 15.0989H250.782C256.161 15.0989 259.016 15.8814 261.2 17.9539C263.063 19.691 264.223 22.9931 264.223 26.4115C264.223 30.2724 262.485 33.8027 259.742 35.7261C257.837 37.0162 255.486 37.4074 249.72 37.4074H230.969V30.7056Z" fill="#2F348A"/>
<path d="M68.1735 0.0139771H48.6129L63.628 8.97462L39.5218 22.0151L33.1553 37.3842H52.9302L56.5303 28.689H70.7583L74.3398 37.3702H83.6544L68.1735 0.0139771ZM58.314 22.0244L63.6373 8.98393L68.9559 22.0244H58.314Z" fill="#2F348A"/>
<path d="M13.6179 22.0197H39.4659L42.2091 15.3644H13.6179V22.0197Z" fill="#026937"/>
<path d="M0 6.65528H45.8465L48.6175 0H0V6.65528Z" fill="#F29222"/>
<path d="M17.4695 47.7792C19.4908 47.7792 20.3058 48.0168 21.1115 48.8225C22.015 49.726 22.4342 50.9462 22.4342 52.6415C22.4342 54.8397 21.8241 56.3673 20.6364 57.0985C19.9053 57.5642 19.2812 57.6946 17.6185 57.6946H13.6831V47.7792H17.4695ZM15.2526 56.4325H17.7815C18.9412 56.4325 19.6677 56.1344 20.1102 55.4498C20.5723 54.6701 20.7897 53.7696 20.7343 52.865C20.7919 51.8395 20.5439 50.82 20.0217 49.9356C19.556 49.2975 18.9039 49.0414 17.6558 49.0414H15.234L15.2526 56.4325Z" fill="#2F348A"/>
<path d="M31.1574 50.4572C33.2997 50.4246 34.0123 51.0813 33.9518 53.0141V53.7266H32.6012V53.0141C32.6012 51.9568 32.3031 51.6588 31.2925 51.6588H30.7289V57.7133H29.2852V50.4572H31.1574Z" fill="#2F348A"/>
<path d="M40.4905 47.7792H41.9342V49.2789H40.4905V47.7792ZM41.9342 50.4572V57.7179H40.4905V50.4572H41.9342Z" fill="#2F348A"/>
<path d="M54.495 50.4572H56.0087L52.6647 57.7179H51.505L48.3521 50.4805H49.9169L52.1291 55.8457L54.495 50.4572Z" fill="#2F348A"/>
<path d="M62.4451 47.7792H63.8888V49.2789H62.4451V47.7792ZM63.8888 50.4572V57.7179H62.4451V50.4572H63.8888Z" fill="#2F348A"/>
<path d="M74.6332 50.4572C76.7151 50.4246 77.5627 51.2722 77.5627 53.3866V57.7179H76.1189V53.5264C76.1189 52.0733 75.6905 51.5936 74.4097 51.5936H72.7331V57.7179H71.2893V50.4572H74.6332Z" fill="#2F348A"/>
<path d="M91.1201 56.8796C91.1201 58.7425 91.0875 58.9009 90.7475 59.348C90.2818 59.851 89.6298 60.014 88.2046 60H85.1122V58.8543H88.4282C89.5878 58.8543 89.6903 58.7658 89.6763 57.6946H88.1301C86.6724 57.6946 86.3464 57.6341 85.7362 57.2801C84.8048 56.7166 84.3391 55.6734 84.3391 54.2296C84.2953 53.1982 84.6261 52.1858 85.2705 51.3793C85.8806 50.6807 86.5932 50.4479 88.1534 50.4479H91.1434L91.1201 56.8796ZM88.2326 51.5982C87.0589 51.5982 86.6304 51.7472 86.2718 52.2828C85.9553 52.8822 85.7951 53.5518 85.8061 54.2296C85.7882 54.8535 85.9657 55.4673 86.3138 55.9854C86.6537 56.4185 87.0543 56.5489 87.9764 56.5489H89.6717V51.5982H88.2326Z" fill="#2F348A"/>
<path d="M107.644 47.7792H109.237V57.7179H107.644V47.7792Z" fill="#2F348A"/>
<path d="M120.014 50.4572C122.096 50.4246 122.943 51.2722 122.943 53.3866V57.7179H121.5V53.5264C121.5 52.0733 121.071 51.5936 119.79 51.5936H118.109V57.7179H116.67V50.4572H120.014Z" fill="#2F348A"/>
<path d="M135.043 47.7792H136.482V57.7179H133.255C131.993 57.7179 131.322 57.5409 130.772 57.0799C130.416 56.7012 130.14 56.2542 129.962 55.7659C129.783 55.2776 129.706 54.7581 129.734 54.2389C129.734 52.9488 130.199 51.7426 130.893 51.1651C131.443 50.6994 132.263 50.4805 133.376 50.4805H135.043V47.7792ZM135.043 51.5982H133.492C132.514 51.5982 132.007 51.8078 131.629 52.3294C131.321 52.8489 131.176 53.4496 131.215 54.0526C131.215 55.8829 131.764 56.5489 133.25 56.5489H135.038L135.043 51.5982Z" fill="#2F348A"/>
<path d="M143.883 47.7792H145.326V49.2789H143.883V47.7792ZM145.326 50.4572V57.7179H143.883V50.4572H145.326Z" fill="#2F348A"/>
<path d="M157.594 53.2795C157.594 51.8218 157.37 51.5842 155.959 51.5982H152.564V50.4572H156.29C158.432 50.4246 159.084 51.0626 159.056 53.1165V57.7179H155.381C153.984 57.7179 153.616 57.6434 153.109 57.2894C152.845 57.0848 152.635 56.8197 152.495 56.5165C152.356 56.2133 152.291 55.8809 152.308 55.5476C152.286 55.1777 152.357 54.8081 152.514 54.4729C152.672 54.1376 152.912 53.8474 153.211 53.6288C153.584 53.3913 154.105 53.3028 155.042 53.3028L157.594 53.2795ZM155.186 54.4252C154.161 54.4252 153.789 54.7233 153.789 55.4964C153.789 56.2695 154.175 56.5489 155.186 56.5489H157.594V54.4252H155.186Z" fill="#2F348A"/>
<path d="M182.743 53.3401H176.954V57.7179H175.366V51.7193C175.333 50.0986 175.664 49.237 176.586 48.5058C177.373 47.9422 178.072 47.7932 179.846 47.7792H182.743V49.0414H179.683C177.718 49.0134 176.945 49.712 176.945 51.5097V52.0779H182.743V53.3401Z" fill="#2F348A"/>
<path d="M196.519 54.1132C196.519 56.4186 195.15 57.7692 192.831 57.7692C190.512 57.7692 189.128 56.4931 189.128 54.2017C189.097 53.1977 189.428 52.216 190.06 51.4352C190.703 50.7227 191.606 50.3827 192.901 50.3827C195.225 50.3827 196.519 51.7193 196.519 54.1132ZM190.614 54.1132C190.614 55.7339 191.359 56.5816 192.784 56.5816C194.209 56.5816 195.029 55.7619 195.029 54.1411C195.029 52.5204 194.228 51.5703 192.817 51.5703C191.406 51.5703 190.614 52.4785 190.614 54.1132Z" fill="#2F348A"/>
<path d="M205.27 50.4572C207.413 50.4246 208.125 51.0813 208.065 53.0141V53.7266H206.728V53.0141C206.728 51.9568 206.43 51.6588 205.42 51.6588H204.856V57.7133H203.412V50.4572H205.27Z" fill="#2F348A"/>
<path d="M218.753 50.4572H220.197V56.549H222.856V50.4572H224.3V57.7179H217.566C216.211 57.7179 215.703 57.5689 215.186 57.0659C214.669 56.5629 214.548 56.0367 214.548 55.1005V50.4805H215.987V54.6255C215.945 56.2462 216.211 56.5583 217.566 56.5723H218.753V50.4572Z" fill="#2F348A"/>
<path d="M236.456 53.2795C236.456 51.8218 236.232 51.5842 234.821 51.5982H231.417V50.4572H235.142C237.285 50.4246 237.937 51.0626 237.909 53.1165V57.7179H234.234C232.837 57.7179 232.469 57.6434 231.961 57.2894C231.698 57.0848 231.487 56.8197 231.348 56.5165C231.209 56.2133 231.144 55.8809 231.16 55.5476C231.138 55.1777 231.209 54.8081 231.367 54.4729C231.525 54.1376 231.765 53.8474 232.064 53.6288C232.437 53.3913 232.958 53.3028 233.894 53.3028L236.456 53.2795ZM234.048 54.4252C233.023 54.4252 232.651 54.7233 232.651 55.4964C232.651 56.2695 233.037 56.5489 234.048 56.5489H236.456V54.4252H234.048Z" fill="#2F348A"/>
<path d="M247.056 50.4572C249.193 50.4246 249.911 51.0813 249.85 53.0141V53.7266H248.5V53.0141C248.5 51.9568 248.201 51.6588 247.191 51.6588H246.623V57.7133H245.198V50.4572H247.056Z" fill="#2F348A"/>
<path d="M261.414 47.7792H262.849V57.7179H259.626C258.359 57.7179 257.693 57.5409 257.143 57.0799C256.785 56.7022 256.508 56.2555 256.329 55.767C256.149 55.2785 256.072 54.7585 256.1 54.2389C256.1 52.9488 256.566 51.7426 257.26 51.1651C257.809 50.6994 258.629 50.4805 259.742 50.4805H261.41L261.414 47.7792ZM261.414 51.5982H259.868C258.885 51.5982 258.382 51.8078 258.005 52.3294C257.693 52.8475 257.546 53.4489 257.586 54.0526C257.586 55.8829 258.14 56.5489 259.626 56.5489H261.41L261.414 51.5982Z" fill="#2F348A"/>
</g>
<defs>
<clipPath id="clip0_926_1559">
<rect width="264.237" height="60" fill="white"/>
</clipPath>
</defs>
</svg>
